<svg width="4220" height="825" viewBox="0 0 4220 825" fill="none" xmlns="http://www.w3.org/2000/svg">
<path d="M245 557.194L343.51 216H421.358L519.868 557.194H451.391L384.597 299.376H380.272L313.477 557.194H245ZM294.736 492.56V433.932H467.73V492.56H294.736Z" fill="white"/>
<path d="M621.022 557.194V498.807H681.81C699.109 498.807 712.564 494.722 722.175 486.553C731.786 478.383 736.591 466.93 736.591 452.193C736.591 437.616 731.546 426.323 721.454 418.314C711.363 410.305 697.027 406.3 678.446 406.3H621.983L616.216 380.831H710.402C740.035 380.831 762.861 388.039 778.879 402.456C795.057 416.872 803.146 437.216 803.146 463.486C803.146 493.281 793.775 516.347 775.034 532.686C756.454 549.025 730.024 557.194 695.745 557.194H621.022ZM560.954 557.194V216H624.385V557.194H560.954ZM604.683 389.481V365.933H699.349V389.481H604.683ZM621.022 373.142V347.672H667.394C682.29 347.672 693.503 344.469 701.031 338.061C708.72 331.494 712.564 321.882 712.564 309.228C712.564 297.694 708.48 289.044 700.311 283.278C692.302 277.351 680.208 274.388 664.03 274.388H621.983L616.216 216H666.433C702.313 216 730.024 223.369 749.566 238.106C769.268 252.682 779.119 273.506 779.119 300.578C779.119 323.805 771.51 341.745 756.293 354.4C741.076 366.894 719.532 373.142 691.661 373.142H621.022Z" fill="white"/>
<path d="M1010.26 557.194V216H1073.69V557.194H1010.26ZM844.472 557.194V216H907.903V557.194H844.472ZM854.564 416.632V358.004H1064.8V416.632H854.564Z" fill="white"/>
<path d="M1215.45 557.194V216H1278.88V557.194H1215.45ZM1139.52 557.194V500.008H1355.28V557.194H1139.52ZM1139.52 272.946V216H1355.28V272.946H1139.52Z" fill="white"/>
<path d="M1529.48 562C1490.72 562 1460.76 551.428 1439.62 530.283C1418.64 508.979 1408.14 479.184 1408.14 440.9H1474.22C1474.22 460.122 1479.1 475.1 1488.87 485.832C1498.81 496.404 1512.74 501.69 1530.68 501.69C1548.78 501.69 1562.72 496.404 1572.49 485.832C1582.42 475.26 1587.39 460.282 1587.39 440.9V216H1650.82V440.9C1650.82 479.344 1640.08 509.139 1618.62 530.283C1597.32 551.428 1567.6 562 1529.48 562ZM1509.3 274.388V216H1621.26V274.388H1509.3Z" fill="white"/>
<path d="M1714.25 557.194V216H1777.68V557.194H1714.25ZM1714.25 557.194V498.807H1948.27V557.194H1714.25ZM1714.25 415.671V357.043H1905.02V415.671H1714.25ZM1714.25 274.388V216H1948.27V274.388H1714.25Z" fill="white"/>
<path d="M2002.57 557.194V216H2066V557.194H2002.57ZM2002.57 557.194V498.807H2236.59V557.194H2002.57ZM2002.57 415.671V357.043H2193.34V415.671H2002.57ZM2002.57 274.388V216H2236.59V274.388H2002.57Z" fill="white"/>
<path d="M2368.98 557.194V216H2432.41V557.194H2368.98ZM2271.67 274.388V216H2529.72V274.388H2271.67Z" fill="white"/>
<path d="M2740.2 557.194V216H2803.63V557.194H2740.2ZM2574.41 557.194V216H2637.84V557.194H2574.41ZM2584.5 416.632V358.004H2794.74V416.632H2584.5Z" fill="white"/>
<path d="M3216.41 557.194L3128.23 216H3193.83L3263.5 500.249H3267.83L3337.51 216H3403.1L3314.92 557.194H3216.41Z" fill="white"/>
<path d="M3859.61 557.194L3799.55 290.486H3773.36V216H3825.01L3885.08 482.708H3901.18V557.194H3859.61ZM3729.63 557.194V216H3790.66V557.194H3729.63ZM3893.97 557.194V216H3955V557.194H3893.97Z" fill="white"/>
<g filter="url(#filter0_d_775_9)">
<rect x="173" y="150" width="3874" height="479" rx="101" fill="black" fill-opacity="0.01" shape-rendering="crispEdges"/>
<rect x="174" y="151" width="3872" height="477" rx="100" stroke="white" stroke-width="2" shape-rendering="crispEdges"/>
</g>
<defs>
<filter id="filter0_d_775_9" x="0.199997" y="0.199997" width="4219.6" height="824.6" filterUnits="userSpaceOnUse" color-interpolation-filters="sRGB">
<feFlood flood-opacity="0" result="BackgroundImageFix"/>
<feColorMatrix in="SourceAlpha" type="matrix" values="0 0 0 0 0 0 0 0 0 0 0 0 0 0 0 0 0 0 127 0" result="hardAlpha"/>
<feMorphology radius="19" operator="erode" in="SourceAlpha" result="effect1_dropShadow_775_9"/>
<feOffset dy="23"/>
<feGaussianBlur stdDeviation="95.9"/>
<feComposite in2="hardAlpha" operator="out"/>
<feColorMatrix type="matrix" values="0 0 0 0 0 0 0 0 0 0 0 0 0 0 0 0 0 0 0.25 0"/>
<feBlend mode="normal" in2="BackgroundImageFix" result="effect1_dropShadow_775_9"/>
<feBlend mode="normal" in="BackgroundImageFix" in2="effect1_dropShadow_775_9" result="BackgroundImageFix"/>
<feBlend mode="normal" in="SourceGraphic" in2="BackgroundImageFix" result="shape"/>
</filter>
</defs>
</svg>
