<svg xmlns="http://www.w3.org/2000/svg" width="1606" height="1705" fill="none"><g filter="url(#a)"><path fill="#000" d="M63.306 1061.57 392 625.72c41.464-54.981 119.695-65.956 174.735-24.512 31.255 23.534 49.654 60.352 49.697 99.45l.598 544.262c.06 54.25-53.37 92.4-104.728 74.78-31.675-10.86-53.069-40.49-53.404-73.95l-4.102-409.857c-.35-34.98-44.884-49.63-65.95-21.695a36.6 36.6 0 0 0-7.133 26.294l11.167 95.454a211.06 211.06 0 0 1-41.125 151.614l-91.973 121.96c-56.915 75.47-174.253 61.16-211.37-25.79-17.27-40.45-11.591-87.04 14.893-122.16"/><path stroke="#00FF7B" stroke-width="11" d="M63.306 1061.57 392 625.72c41.464-54.981 119.695-65.956 174.735-24.512 31.255 23.534 49.654 60.352 49.697 99.45l.598 544.262c.06 54.25-53.37 92.4-104.728 74.78-31.675-10.86-53.069-40.49-53.404-73.95l-4.102-409.857c-.35-34.98-44.884-49.63-65.95-21.695a36.6 36.6 0 0 0-7.133 26.294l11.167 95.454a211.06 211.06 0 0 1-41.125 151.614l-91.973 121.96c-56.915 75.47-174.253 61.16-211.37-25.79-17.27-40.45-11.591-87.04 14.893-122.16Z"/></g><g filter="url(#b)"><path fill="#000" d="M63.306 1061.57 392 625.72c41.464-54.981 119.695-65.956 174.735-24.512 31.255 23.534 49.654 60.352 49.697 99.45l.598 544.262c.06 54.25-53.37 92.4-104.728 74.78-31.675-10.86-53.069-40.49-53.404-73.95l-4.102-409.857c-.35-34.98-44.884-49.63-65.95-21.695a36.6 36.6 0 0 0-7.133 26.294l11.167 95.454a211.06 211.06 0 0 1-41.125 151.614l-91.973 121.96c-56.915 75.47-174.253 61.16-211.37-25.79-17.27-40.45-11.591-87.04 14.893-122.16"/><path stroke="#00FF7B" stroke-width="11" d="M63.306 1061.57 392 625.72c41.464-54.981 119.695-65.956 174.735-24.512 31.255 23.534 49.654 60.352 49.697 99.45l.598 544.262c.06 54.25-53.37 92.4-104.728 74.78-31.675-10.86-53.069-40.49-53.404-73.95l-4.102-409.857c-.35-34.98-44.884-49.63-65.95-21.695a36.6 36.6 0 0 0-7.133 26.294l11.167 95.454a211.06 211.06 0 0 1-41.125 151.614l-91.973 121.96c-56.915 75.47-174.253 61.16-211.37-25.79-17.27-40.45-11.591-87.04 14.893-122.16Z"/></g><g filter="url(#c)"><path fill="#000" d="m970.575 115.907 256.105 482.098c32.31 60.815 9.19 136.355-51.63 168.724-34.54 18.38-75.68 19.495-111.14 3.011L570.393 540.267c-49.193-22.874-61.19-87.421-23.516-126.52 23.236-24.116 59.126-30.985 89.591-17.149l373.192 169.497c31.85 14.466 63.95-19.704 47.54-50.603a36.62 36.62 0 0 0-20.82-17.576l-91.231-30.221A211.06 211.06 0 0 1 825.121 366.35L753.46 231.453c-44.347-83.479 18.213-183.774 112.694-180.67 43.964 1.444 83.786 26.28 104.421 65.124"/><path stroke="red" stroke-width="11" d="m970.575 115.907 256.105 482.098c32.31 60.815 9.19 136.355-51.63 168.724-34.54 18.38-75.68 19.495-111.14 3.011L570.393 540.267c-49.193-22.874-61.19-87.421-23.516-126.52 23.236-24.116 59.126-30.985 89.591-17.149l373.192 169.497c31.85 14.466 63.95-19.704 47.54-50.603a36.62 36.62 0 0 0-20.82-17.576l-91.231-30.221A211.06 211.06 0 0 1 825.121 366.35L753.46 231.453c-44.347-83.479 18.213-183.774 112.694-180.67 43.964 1.444 83.786 26.28 104.421 65.124Z"/></g><g filter="url(#d)"><path fill="#000" d="m970.575 115.907 256.105 482.098c32.31 60.815 9.19 136.355-51.63 168.724-34.54 18.38-75.68 19.495-111.14 3.011L570.393 540.267c-49.193-22.874-61.19-87.421-23.516-126.52 23.236-24.116 59.126-30.985 89.591-17.149l373.192 169.497c31.85 14.466 63.95-19.704 47.54-50.603a36.62 36.62 0 0 0-20.82-17.576l-91.231-30.221A211.06 211.06 0 0 1 825.121 366.35L753.46 231.453c-44.347-83.479 18.213-183.774 112.694-180.67 43.964 1.444 83.786 26.28 104.421 65.124"/><path stroke="red" stroke-width="11" d="m970.575 115.907 256.105 482.098c32.31 60.815 9.19 136.355-51.63 168.724-34.54 18.38-75.68 19.495-111.14 3.011L570.393 540.267c-49.193-22.874-61.19-87.421-23.516-126.52 23.236-24.116 59.126-30.985 89.591-17.149l373.192 169.497c31.85 14.466 63.95-19.704 47.54-50.603a36.62 36.62 0 0 0-20.82-17.576l-91.231-30.221A211.06 211.06 0 0 1 825.121 366.35L753.46 231.453c-44.347-83.479 18.213-183.774 112.694-180.67 43.964 1.444 83.786 26.28 104.421 65.124Z"/></g><g filter="url(#e)"><path fill="#000" d="m1312.68 1372.75-539.151-85.6c-68.011-10.8-114.429-74.72-103.676-142.78 6.106-38.64 29.977-72.17 64.478-90.57l480.279-256.04c47.87-25.521 106.64 3.743 115.19 57.362 5.28 33.069-10.84 65.867-40.22 81.87L929.62 1133.03c-30.721 16.73-22.749 62.93 11.806 68.42a36.63 36.63 0 0 0 26.565-6.05l79.039-54.67a211.04 211.04 0 0 1 153.17-34.87l150.86 23.95c93.36 14.82 135.81 125.15 76.47 198.73-27.61 34.25-71.41 51.1-114.85 44.21"/><path stroke="#07F" stroke-width="11" d="m1312.68 1372.75-539.151-85.6c-68.011-10.8-114.429-74.72-103.676-142.78 6.106-38.64 29.977-72.17 64.478-90.57l480.279-256.04c47.87-25.521 106.64 3.743 115.19 57.362 5.28 33.069-10.84 65.867-40.22 81.87L929.62 1133.03c-30.721 16.73-22.749 62.93 11.806 68.42a36.63 36.63 0 0 0 26.565-6.05l79.039-54.67a211.04 211.04 0 0 1 153.17-34.87l150.86 23.95c93.36 14.82 135.81 125.15 76.47 198.73-27.61 34.25-71.41 51.1-114.85 44.21Z"/></g><g filter="url(#f)"><path fill="#000" d="m1312.68 1372.75-539.151-85.6c-68.011-10.8-114.429-74.72-103.676-142.78 6.106-38.64 29.977-72.17 64.478-90.57l480.279-256.04c47.87-25.521 106.64 3.743 115.19 57.362 5.28 33.069-10.84 65.867-40.22 81.87L929.62 1133.03c-30.721 16.73-22.749 62.93 11.806 68.42a36.63 36.63 0 0 0 26.565-6.05l79.039-54.67a211.04 211.04 0 0 1 153.17-34.87l150.86 23.95c93.36 14.82 135.81 125.15 76.47 198.73-27.61 34.25-71.41 51.1-114.85 44.21"/><path stroke="#07F" stroke-width="11" d="m1312.68 1372.75-539.151-85.6c-68.011-10.8-114.429-74.72-103.676-142.78 6.106-38.64 29.977-72.17 64.478-90.57l480.279-256.04c47.87-25.521 106.64 3.743 115.19 57.362 5.28 33.069-10.84 65.867-40.22 81.87L929.62 1133.03c-30.721 16.73-22.749 62.93 11.806 68.42a36.63 36.63 0 0 0 26.565-6.05l79.039-54.67a211.04 211.04 0 0 1 153.17-34.87l150.86 23.95c93.36 14.82 135.81 125.15 76.47 198.73-27.61 34.25-71.41 51.1-114.85 44.21Z"/></g><defs><filter id="a" width="4110.68" height="4280.17" x="-1727.55" y="-1190.01" color-interpolation-filters="sRGB" filterUnits="userSpaceOnUse"><feFlood flood-opacity="0" result="BackgroundImageFix"/><feGaussianBlur in="BackgroundImageFix" stdDeviation="880.3"/><feComposite in2="SourceAlpha" operator="in" result="effect1_backgroundBlur_354_23"/><feColorMatrix in="SourceAlpha" result="hardAlpha" values="0 0 0 0 0 0 0 0 0 0 0 0 0 0 0 0 0 0 127 0"/><feOffset dy="4"/><feGaussianBlur stdDeviation="2"/><feComposite in2="hardAlpha" operator="out"/><feColorMatrix values="0 0 0 0 0 0 0 0 0 0 0 0 0 0 0 0 0 0 0.25 0"/><feBlend in2="effect1_backgroundBlur_354_23" result="effect2_dropShadow_354_23"/><feBlend in="SourceGraphic" in2="effect2_dropShadow_354_23" result="shape"/><feColorMatrix in="SourceAlpha" result="hardAlpha" values="0 0 0 0 0 0 0 0 0 0 0 0 0 0 0 0 0 0 127 0"/><feOffset dy="4"/><feGaussianBlur stdDeviation="2"/><feComposite in2="hardAlpha" k2="-1" k3="1" operator="arithmetic"/><feColorMatrix values="0 0 0 0 0 0 0 0 0 0 0 0 0 0 0 0 0 0 0.25 0"/><feBlend in2="shape" result="effect3_innerShadow_354_23"/></filter><filter id="b" width="655.483" height="824.967" x=".048" y="537.586" color-interpolation-filters="sRGB" filterUnits="userSpaceOnUse"><feFlood flood-opacity="0" result="BackgroundImageFix"/><feColorMatrix in="SourceAlpha" result="hardAlpha" values="0 0 0 0 0 0 0 0 0 0 0 0 0 0 0 0 0 0 127 0"/><feOffset dy="4"/><feGaussianBlur stdDeviation="2"/><feComposite in2="hardAlpha" operator="out"/><feColorMatrix values="0 0 0 0 0 0 0 0 0 0 0 0 0 0 0 0 0 0 0.25 0"/><feBlend in2="BackgroundImageFix" result="effect1_dropShadow_354_23"/><feBlend in="SourceGraphic" in2="effect1_dropShadow_354_23" result="shape"/><feColorMatrix in="SourceAlpha" result="hardAlpha" values="0 0 0 0 0 0 0 0 0 0 0 0 0 0 0 0 0 0 127 0"/><feOffset dy="4"/><feGaussianBlur stdDeviation="2"/><feComposite in2="hardAlpha" k2="-1" k3="1" operator="arithmetic"/><feColorMatrix values="0 0 0 0 0 0 0 0 0 0 0 0 0 0 0 0 0 0 0.25 0"/><feBlend in2="shape" result="effect2_innerShadow_354_23"/><feGaussianBlur result="effect3_foregroundBlur_354_23" stdDeviation="16.5"/></filter><filter id="c" width="4248.77" height="4262.84" x="-1241.39" y="-1715.39" color-interpolation-filters="sRGB" filterUnits="userSpaceOnUse"><feFlood flood-opacity="0" result="BackgroundImageFix"/><feGaussianBlur in="BackgroundImageFix" stdDeviation="880.3"/><feComposite in2="SourceAlpha" operator="in" result="effect1_backgroundBlur_354_23"/><feColorMatrix in="SourceAlpha" result="hardAlpha" values="0 0 0 0 0 0 0 0 0 0 0 0 0 0 0 0 0 0 127 0"/><feOffset dy="4"/><feGaussianBlur stdDeviation="2"/><feComposite in2="hardAlpha" operator="out"/><feColorMatrix values="0 0 0 0 0 0 0 0 0 0 0 0 0 0 0 0 0 0 0.25 0"/><feBlend in2="effect1_backgroundBlur_354_23" result="effect2_dropShadow_354_23"/><feBlend in="SourceGraphic" in2="effect2_dropShadow_354_23" result="shape"/><feColorMatrix in="SourceAlpha" result="hardAlpha" values="0 0 0 0 0 0 0 0 0 0 0 0 0 0 0 0 0 0 127 0"/><feOffset dy="4"/><feGaussianBlur stdDeviation="2"/><feComposite in2="hardAlpha" k2="-1" k3="1" operator="arithmetic"/><feColorMatrix values="0 0 0 0 0 0 0 0 0 0 0 0 0 0 0 0 0 0 0.25 0"/><feBlend in2="shape" result="effect3_innerShadow_354_23"/></filter><filter id="d" width="793.567" height="807.642" x="486.211" y="12.212" color-interpolation-filters="sRGB" filterUnits="userSpaceOnUse"><feFlood flood-opacity="0" result="BackgroundImageFix"/><feColorMatrix in="SourceAlpha" result="hardAlpha" values="0 0 0 0 0 0 0 0 0 0 0 0 0 0 0 0 0 0 127 0"/><feOffset dy="4"/><feGaussianBlur stdDeviation="2"/><feComposite in2="hardAlpha" operator="out"/><feColorMatrix values="0 0 0 0 0 0 0 0 0 0 0 0 0 0 0 0 0 0 0.25 0"/><feBlend in2="BackgroundImageFix" result="effect1_dropShadow_354_23"/><feBlend in="SourceGraphic" in2="effect1_dropShadow_354_23" result="shape"/><feColorMatrix in="SourceAlpha" result="hardAlpha" values="0 0 0 0 0 0 0 0 0 0 0 0 0 0 0 0 0 0 127 0"/><feOffset dy="4"/><feGaussianBlur stdDeviation="2"/><feComposite in2="hardAlpha" k2="-1" k3="1" operator="arithmetic"/><feColorMatrix values="0 0 0 0 0 0 0 0 0 0 0 0 0 0 0 0 0 0 0.25 0"/><feBlend in2="shape" result="effect2_innerShadow_354_23"/><feGaussianBlur result="effect3_foregroundBlur_354_23" stdDeviation="16.5"/></filter><filter id="e" width="4318.8" height="4118.06" x="-1097.8" y="-977.689" color-interpolation-filters="sRGB" filterUnits="userSpaceOnUse"><feFlood flood-opacity="0" result="BackgroundImageFix"/><feGaussianBlur in="BackgroundImageFix" stdDeviation="880.3"/><feComposite in2="SourceAlpha" operator="in" result="effect1_backgroundBlur_354_23"/><feColorMatrix in="SourceAlpha" result="hardAlpha" values="0 0 0 0 0 0 0 0 0 0 0 0 0 0 0 0 0 0 127 0"/><feOffset dy="4"/><feGaussianBlur stdDeviation="2"/><feComposite in2="hardAlpha" operator="out"/><feColorMatrix values="0 0 0 0 0 0 0 0 0 0 0 0 0 0 0 0 0 0 0.25 0"/><feBlend in2="effect1_backgroundBlur_354_23" result="effect2_dropShadow_354_23"/><feBlend in="SourceGraphic" in2="effect2_dropShadow_354_23" result="shape"/><feColorMatrix in="SourceAlpha" result="hardAlpha" values="0 0 0 0 0 0 0 0 0 0 0 0 0 0 0 0 0 0 127 0"/><feOffset dy="4"/><feGaussianBlur stdDeviation="2"/><feComposite in2="hardAlpha" k2="-1" k3="1" operator="arithmetic"/><feColorMatrix values="0 0 0 0 0 0 0 0 0 0 0 0 0 0 0 0 0 0 0.25 0"/><feBlend in2="shape" result="effect3_innerShadow_354_23"/></filter><filter id="f" width="863.599" height="662.858" x="629.804" y="749.911" color-interpolation-filters="sRGB" filterUnits="userSpaceOnUse"><feFlood flood-opacity="0" result="BackgroundImageFix"/><feColorMatrix in="SourceAlpha" result="hardAlpha" values="0 0 0 0 0 0 0 0 0 0 0 0 0 0 0 0 0 0 127 0"/><feOffset dy="4"/><feGaussianBlur stdDeviation="2"/><feComposite in2="hardAlpha" operator="out"/><feColorMatrix values="0 0 0 0 0 0 0 0 0 0 0 0 0 0 0 0 0 0 0.25 0"/><feBlend in2="BackgroundImageFix" result="effect1_dropShadow_354_23"/><feBlend in="SourceGraphic" in2="effect1_dropShadow_354_23" result="shape"/><feColorMatrix in="SourceAlpha" result="hardAlpha" values="0 0 0 0 0 0 0 0 0 0 0 0 0 0 0 0 0 0 127 0"/><feOffset dy="4"/><feGaussianBlur stdDeviation="2"/><feComposite in2="hardAlpha" k2="-1" k3="1" operator="arithmetic"/><feColorMatrix values="0 0 0 0 0 0 0 0 0 0 0 0 0 0 0 0 0 0 0.25 0"/><feBlend in2="shape" result="effect2_innerShadow_354_23"/><feGaussianBlur result="effect3_foregroundBlur_354_23" stdDeviation="16.5"/></filter></defs></svg>
